HIERARCHY
ROOT Hips
{
    OFFSET   0.000000   0.000000   0.000000
    CHANNELS 6 Xposition Yposition Zposition Zrotation Xrotation Yrotation
    JOINT Chest
    {
        OFFSET   0.000000   8.007240   0.000000
        CHANNELS 3 Zrotation Xrotation Yrotation
        JOINT Chest2
        {
            OFFSET   0.000000  22.077100   0.000000
            CHANNELS 3 Zrotation Xrotation Yrotation
            JOINT Neck
            {
                OFFSET   0.000000  23.254800   0.000000
                CHANNELS 3 Zrotation Xrotation Yrotation
                JOINT Head
                {
                    OFFSET   0.000000  14.370000   1.956600
                    CHANNELS 3 Zrotation Xrotation Yrotation
                    End Site
                    {
                        OFFSET   0.000000  19.566000   0.000000
                    }
                }
            }
            JOINT LeftCollar
            {
                OFFSET   3.911900  19.017000  -0.467064
                CHANNELS 3 Zrotation Xrotation Yrotation
                JOINT LeftShoulder
                {
                    OFFSET  10.383700   0.000000   0.000000
                    CHANNELS 3 Zrotation Xrotation Yrotation
                    JOINT LeftElbow
                    {
                        OFFSET  26.662100   0.001476   0.000517
                        CHANNELS 3 Zrotation Xrotation Yrotation
                        JOINT LeftWrist
                        {
                            OFFSET  28.869000  -0.000025  -0.000106
                            CHANNELS 3 Zrotation Xrotation Yrotation
                            JOINT LeftFinger0
                            {
                                OFFSET   2.044660  -2.323460   3.252850
                                CHANNELS 3 Zrotation Xrotation Yrotation
                                JOINT LeftFinger01
                                {
                                    OFFSET   3.088130   0.000000   0.000000
                                    CHANNELS 3 Zrotation Xrotation Yrotation
                                    JOINT LeftFinger02
                                    {
                                        OFFSET   2.639460   0.000000   0.000000
                                        CHANNELS 3 Zrotation Xrotation Yrotation
                                        End Site
                                        {
                                            OFFSET   2.582190   0.000000   0.000000
                                        }
                                    }
                                }
                            }
                            JOINT LeftFinger1
                            {
                                OFFSET   8.364480   0.000000   3.252850
                                CHANNELS 3 Zrotation Xrotation Yrotation
                                JOINT LeftFinger11
                                {
                                    OFFSET   4.646930   0.000000   0.000000
                                    CHANNELS 3 Zrotation Xrotation Yrotation
                                    JOINT LeftFinger12
                                    {
                                        OFFSET   2.323460   0.000000   0.000000
                                        CHANNELS 3 Zrotation Xrotation Yrotation
                                        End Site
                                        {
                                            OFFSET   2.273050   0.000000   0.000000
                                        }
                                    }
                                }
                            }
                            JOINT LeftFinger2
                            {
                                OFFSET   8.364490   0.000015   1.078090
                                CHANNELS 3 Zrotation Xrotation Yrotation
                                JOINT LeftFinger21
                                {
                                    OFFSET   5.111620   0.000000   0.000000
                                    CHANNELS 3 Zrotation Xrotation Yrotation
                                    JOINT LeftFinger22
                                    {
                                        OFFSET   2.788160   0.000016   0.000000
                                        CHANNELS 3 Zrotation Xrotation Yrotation
                                        End Site
                                        {
                                            OFFSET   2.727660   0.000000   0.000000
                                        }
                                    }
                                }
                            }
                            JOINT LeftFinger3
                            {
                                OFFSET   7.899780   0.000017  -1.078090
                                CHANNELS 3 Zrotation Xrotation Yrotation
                                JOINT LeftFinger31
                                {
                                    OFFSET   4.646930   0.000000   0.000000
                                    CHANNELS 3 Zrotation Xrotation Yrotation
                                    JOINT LeftFinger32
                                    {
                                        OFFSET   2.323470   0.000000   0.000000
                                        CHANNELS 3 Zrotation Xrotation Yrotation
                                        End Site
                                        {
                                            OFFSET   2.273050   0.000000   0.000000
                                        }
                                    }
                                }
                            }
                            JOINT LeftFinger4
                            {
                                OFFSET   7.435090   0.000000  -3.252850
                                CHANNELS 3 Zrotation Xrotation Yrotation
                                JOINT LeftFinger41
                                {
                                    OFFSET   3.717550   0.000000   0.000000
                                    CHANNELS 3 Zrotation Xrotation Yrotation
                                    JOINT LeftFinger42
                                    {
                                        OFFSET   1.858770   0.000000   0.000000
                                        CHANNELS 3 Zrotation Xrotation Yrotation
                                        End Site
                                        {
                                            OFFSET   1.818440   0.000000   0.000000
                                        }
                                    }
                                }
                            }
                        }
                    }
                }
            }
            JOINT RightCollar
            {
                OFFSET  -3.911900  19.017000  -0.467063
                CHANNELS 3 Zrotation Xrotation Yrotation
                JOINT RightShoulder
                {
                    OFFSET -10.383700   0.000019   0.000000
                    CHANNELS 3 Zrotation Xrotation Yrotation
                    JOINT RightElbow
                    {
                        OFFSET -26.662100   0.001175   0.000102
                        CHANNELS 3 Zrotation Xrotation Yrotation
                        JOINT RightWrist
                        {
                            OFFSET -28.869000   0.000016  -0.000079
                            CHANNELS 3 Zrotation Xrotation Yrotation
                            JOINT RightFinger0
                            {
                                OFFSET  -2.044660  -2.323490   3.252850
                                CHANNELS 3 Zrotation Xrotation Yrotation
                                JOINT RightFinger01
                                {
                                    OFFSET  -3.088140   0.000000   0.000000
                                    CHANNELS 3 Zrotation Xrotation Yrotation
                                    JOINT RightFinger02
                                    {
                                        OFFSET  -2.639460   0.000000   0.000000
                                        CHANNELS 3 Zrotation Xrotation Yrotation
                                        End Site
                                        {
                                            OFFSET  -2.582190   0.000000   0.000000
                                        }
                                    }
                                }
                            }
                            JOINT RightFinger1
                            {
                                OFFSET  -8.364480   0.000000   3.252850
                                CHANNELS 3 Zrotation Xrotation Yrotation
                                JOINT RightFinger11
                                {
                                    OFFSET  -4.646930   0.000000   0.000000
                                    CHANNELS 3 Zrotation Xrotation Yrotation
                                    JOINT RightFinger12
                                    {
                                        OFFSET  -2.323470   0.000000   0.000000
                                        CHANNELS 3 Zrotation Xrotation Yrotation
                                        End Site
                                        {
                                            OFFSET  -2.273050   0.000000   0.000000
                                        }
                                    }
                                }
                            }
                            JOINT RightFinger2
                            {
                                OFFSET  -8.364480   0.000000   1.078090
                                CHANNELS 3 Zrotation Xrotation Yrotation
                                JOINT RightFinger21
                                {
                                    OFFSET  -5.111620   0.000000   0.000000
                                    CHANNELS 3 Zrotation Xrotation Yrotation
                                    JOINT RightFinger22
                                    {
                                        OFFSET  -2.788160   0.000000   0.000000
                                        CHANNELS 3 Zrotation Xrotation Yrotation
                                        End Site
                                        {
                                            OFFSET  -2.727660   0.000000   0.000000
                                        }
                                    }
                                }
                            }
                            JOINT RightFinger3
                            {
                                OFFSET  -7.899780   0.000000  -1.078090
                                CHANNELS 3 Zrotation Xrotation Yrotation
                                JOINT RightFinger31
                                {
                                    OFFSET  -4.646930   0.000000   0.000000
                                    CHANNELS 3 Zrotation Xrotation Yrotation
                                    JOINT RightFinger32
                                    {
                                        OFFSET  -2.323470   0.000000   0.000000
                                        CHANNELS 3 Zrotation Xrotation Yrotation
                                        End Site
                                        {
                                            OFFSET  -2.273050   0.000000   0.000000
                                        }
                                    }
                                }
                            }
                            JOINT RightFinger4
                            {
                                OFFSET  -7.435090   0.000000  -3.252850
                                CHANNELS 3 Zrotation Xrotation Yrotation
                                JOINT RightFinger41
                                {
                                    OFFSET  -3.717550   0.000000   0.000000
                                    CHANNELS 3 Zrotation Xrotation Yrotation
                                    JOINT RightFinger42
                                    {
                                        OFFSET  -1.858770   0.000000   0.000000
                                        CHANNELS 3 Zrotation Xrotation Yrotation
                                        End Site
                                        {
                                            OFFSET  -1.818440   0.000000   0.000000
                                        }
                                    }
                                }
                            }
                        }
                    }
                }
            }
        }
    }
    JOINT LeftHip
    {
        OFFSET   9.783040   0.000000   0.000000
        CHANNELS 3 Zrotation Xrotation Yrotation
        JOINT LeftKnee
        {
            OFFSET   0.000032 -41.789100  -0.002222
            CHANNELS 3 Zrotation Xrotation Yrotation
            JOINT LeftAnkle
            {
                OFFSET   0.000087 -41.133200  -0.000135
                CHANNELS 3 Zrotation Xrotation Yrotation
                JOINT LeftToe
                {
                    OFFSET   0.000000  -6.358960  14.674500
                    CHANNELS 3 Zrotation Xrotation Yrotation
                    End Site
                    {
                        OFFSET   0.000000   0.000000   3.913200
                    }
                }
            }
        }
    }
    JOINT RightHip
    {
        OFFSET  -9.783040   0.000000   0.000000
        CHANNELS 3 Zrotation Xrotation Yrotation
        JOINT RightKnee
        {
            OFFSET   0.000047 -41.789100  -0.000896
            CHANNELS 3 Zrotation Xrotation Yrotation
            JOINT RightAnkle
            {
                OFFSET  -0.000117 -41.133300  -0.000248
                CHANNELS 3 Zrotation Xrotation Yrotation
                JOINT RightToe
                {
                    OFFSET   0.000000  -6.358970  14.674500
                    CHANNELS 3 Zrotation Xrotation Yrotation
                    End Site
                    {
                        OFFSET   0.000000   0.000000   3.913200
                    }
                }
            }
        }
    }
}
MOTION
Frames: 4
Frame Time:   0.016667
  3.603420  89.074900   0.208374   0.489159 -19.847500  11.241200  -3.038130   9.826040   3.987590  -6.926500  19.395500   8.698650 -13.156900  -1.227430  -0.286902 -21.636500  -2.099550  -2.635240  -3.599740  -0.229798  -1.724370 -64.571900  12.769000 -50.014300  -6.748580   6.888160 -128.144000  76.791800  16.197900 -54.694400  44.183600  41.176200 -84.575200  18.273600   0.000093   0.002507  14.136800  -0.003492   0.001453  -7.501860   0.084454  -0.644397  -6.138220  -0.001418   0.001366  -4.296760   0.001539   0.005850  -8.886820   0.100631  -0.642169  -8.887290  -0.000652  -0.004387  -5.918960   0.001001  -0.004428  -7.060740   0.080240  -0.645055  -7.061090   0.001528   0.003190  -4.702690   0.002948   0.005673  -7.117050   0.080866  -0.644970 -10.676100   0.000301   0.001560  -7.110310   0.000241   0.002362   0.259858  -1.025470   4.732240  80.144700  13.980800   7.525770   4.912050  -6.572120   9.126520  -9.654790 -10.055300   1.775510 -39.282700  32.175900  66.366800  29.251100  -0.001280   0.000822   9.625560  -0.001693   0.002643  29.967000   7.568180  12.867000  25.217700   0.000000  -0.001433  17.652400   0.000000   0.000062  27.993800   5.418700  10.072700  35.839800   0.000138  -0.004066  23.869300   0.002476  -0.002583  28.468600   3.893460   7.137460  39.304200   0.000583  -0.002647  26.176600   0.002430  -0.001794  36.766500  -0.190407  -0.256028  55.150500   0.008081  -0.002767  36.730200   0.002981  -0.000930   0.693750  22.288200  -0.045987  -0.097611   0.102666   1.057420  -0.008627  -1.727380   0.875949  -0.000000   0.000000   0.000000   1.517670  11.942400  -3.832710   0.446388  19.013200 -10.656400  -2.738430  -9.672340  -6.859780  -0.000000   0.000000   0.000000
  3.651640  89.058700   0.183598   0.508130 -19.886200  11.190800  -3.042520   9.838060   3.996410  -6.939040  19.418400   8.718680 -13.216700  -1.173310  -0.275536 -21.732900  -2.003650  -2.672380  -3.516600  -0.233477  -1.694020 -64.552600  12.864000 -50.158300  -6.710940   6.735310 -128.118000  76.740200  16.315900 -54.697200  44.011100  41.165400 -84.583600  18.240900   0.000037   0.002595  14.120400  -0.003547   0.001519  -7.577350   0.095652  -0.720004  -6.200080  -0.001396   0.001361  -4.340060   0.001493   0.005894  -8.894340   0.113191  -0.717572  -8.894950  -0.000574  -0.004470  -5.924040   0.001042  -0.004507  -7.045520   0.089624  -0.720890  -7.045990   0.001475   0.003139  -4.692620   0.002875   0.005720  -7.103690   0.090154  -0.720801 -10.656200   0.000260   0.001543  -7.097060   0.000207   0.002322   0.233893  -0.990618   4.687310  80.176700  13.982500   7.529460   4.921370  -6.625610   9.096310  -9.634980 -10.045000   1.782330 -39.273300  32.161600  66.367600  29.245500  -0.001287   0.000795   9.622770  -0.001695   0.002640  29.971400   7.572500  12.872600  25.224300   0.000000  -0.001436  17.653700  -0.000000   0.000067  27.994300   5.418670  10.071300  35.846300   0.000136  -0.004063  23.873600   0.002476  -0.002583  28.467900   3.895550   7.141260  39.311200   0.000584  -0.002648  26.181200   0.002426  -0.001789  36.772600  -0.190561  -0.256810  55.158700   0.008084  -0.002764  36.736300   0.002980  -0.000928   0.632834  22.354200  -0.042977  -0.109984   0.070736   1.101750   0.010224  -1.716620   0.899113   0.000000   0.000000   0.000000   1.433050  11.859400  -3.822940   0.456211  19.238900 -10.571000  -2.726700  -9.749450  -6.888090   0.000000   0.000000   0.000000
  3.697570  89.042600   0.155966   0.526397 -19.911700  11.142900  -3.048540   9.842120   4.005010  -6.952630  19.425500   8.737680 -13.274900  -1.115520  -0.263167 -21.826700  -1.901860  -2.692180  -3.438780  -0.238998  -1.677330 -64.527500  12.940300 -50.296000  -6.678870   6.580090 -128.087000  76.638400  16.430000 -54.704800  43.894000  41.144500 -84.588500  18.213600   0.000000   0.002685  14.106800  -0.003609   0.001584  -7.683000   0.110555  -0.819063  -6.286680  -0.001373   0.001357  -4.400690   0.001447   0.005932  -8.901750   0.128001  -0.816587  -8.902590  -0.000495  -0.004551  -5.929130   0.001082  -0.004588  -7.016370   0.101035  -0.820321  -7.017030   0.001423   0.003087  -4.673320   0.002803   0.005765  -7.082120   0.101899  -0.820182 -10.624200   0.000220   0.001521  -7.075680   0.000174   0.002282   0.212971  -0.954402   4.636000  80.214500  13.982700   7.531940   4.932380  -6.669300   9.068490  -9.617300 -10.038000   1.794320 -39.271700  32.150100  66.372600  29.233300  -0.001292   0.000767   9.616640  -0.001697   0.002636  29.973300   7.581890  12.886200  25.228200   0.000000  -0.001441  17.654100   0.000000   0.000072  27.994600   5.418580  10.069900  35.851800   0.000133  -0.004060  23.877200   0.002475  -0.002583  28.466700   3.900080   7.149540  39.317200   0.000586  -0.002649  26.185200   0.002422  -0.001785  36.775700  -0.190602  -0.257097  55.164300   0.008086  -0.002762  36.739400   0.002979  -0.000927   0.574258  22.416100  -0.039963  -0.125823   0.022772   1.139510   0.025212  -1.697550   0.925095   0.000000   0.000000  -0.000000   1.352660  11.771000  -3.819830   0.462891  19.452200 -10.484700  -2.720220  -9.819180  -6.914750   0.000000   0.000000   0.000000
  3.740300  89.027700   0.128097   0.546272 -19.929200  11.099500  -3.055670   9.841390   4.013990  -6.968630  19.423000   8.757220 -13.329700  -1.057360  -0.250519 -21.915000  -1.799840  -2.710770  -3.375450  -0.241068  -1.673440 -64.508600  12.983500 -50.420100  -6.655100   6.452920 -128.062000  76.481100  16.490700 -54.695300  43.941800  41.111600 -84.539100  18.226800   0.000000   0.002780  14.113400  -0.003706   0.001645  -7.727490   0.114878  -0.846423  -6.323150  -0.001347   0.001339  -4.426230   0.001405   0.005961  -8.850390   0.130626  -0.844134  -8.851310  -0.000415  -0.004635  -5.894980   0.001124  -0.004673  -6.975930   0.103399  -0.847850  -6.976640   0.001376   0.003026  -4.646440   0.002723   0.005810  -7.062720   0.104747  -0.847656 -10.595200   0.000179   0.001517  -7.056390   0.000149   0.002239   0.199500  -0.916379   4.572720  80.254000  13.976300   7.522500   4.938490  -6.681460   9.052470  -9.603590 -10.048100   1.815920 -39.281600  32.156100  66.398800  29.212000  -0.001289   0.000786   9.606010  -0.001696   0.002638  29.971300   7.597860  12.912600  25.228500  -0.000000  -0.001443  17.654700   0.000000   0.000070  27.995200   5.418480  10.068600  35.855200   0.000129  -0.004063  23.879500   0.002478  -0.002583  28.464600   3.907730   7.163620  39.319300   0.000586  -0.002651  26.186600   0.002423  -0.001785  36.774900  -0.190652  -0.257499  55.165500   0.008084  -0.002763  36.738600   0.002979  -0.000929   0.523236  22.454700  -0.051461  -0.150269  -0.009440   1.178720   0.034084  -1.675020   0.956999   0.000000   0.000000  -0.000000   1.270930  11.688800  -3.825940   0.468703  19.639400 -10.401400  -2.721630  -9.876750  -6.932120   0.000000   0.000000   0.000000
